<?xml version="1.0" encoding="UTF-8" standalone="no"?>
<!-- Created with Inkscape (http://www.inkscape.org/) -->

<svg
   width="210mm"
   height="65mm"
   viewBox="0 0 210 65"
   version="1.1"
   id="svg1"
   inkscape:version="1.3.2 (091e20e, 2023-11-25, custom)"
   sodipodi:docname="LoansMarketRoundedLogo.svg"
   xmlns:inkscape="http://www.inkscape.org/namespaces/inkscape"
   xmlns:sodipodi="http://sodipodi.sourceforge.net/DTD/sodipodi-0.dtd"
   xmlns="http://www.w3.org/2000/svg"
   xmlns:svg="http://www.w3.org/2000/svg"
   xmlns:rdf="http://www.w3.org/1999/02/22-rdf-syntax-ns#"
   xmlns:cc="http://creativecommons.org/ns#"
   xmlns:dc="http://purl.org/dc/elements/1.1/">
  <title
     id="title1">LoansMarketRoundedLogo</title>
  <sodipodi:namedview
     id="namedview1"
     pagecolor="#ffffff"
     bordercolor="#000000"
     borderopacity="0.25"
     inkscape:showpageshadow="2"
     inkscape:pageopacity="0.0"
     inkscape:pagecheckerboard="true"
     inkscape:deskcolor="#d1d1d1"
     inkscape:document-units="mm"
     inkscape:zoom="0.64126689"
     inkscape:cx="216.75842"
     inkscape:cy="30.408556"
     inkscape:window-width="1366"
     inkscape:window-height="705"
     inkscape:window-x="-8"
     inkscape:window-y="-8"
     inkscape:window-maximized="1"
     inkscape:current-layer="g33"
     inkscape:clip-to-page="true" />
  <defs
     id="defs1" />
  <g
     inkscape:label="Layer 1"
     inkscape:groupmode="layer"
     id="layer1">
    <g
       id="g33"
       transform="matrix(4.5357243,0,0,4.5357243,-581.18136,-898.9357)">
      <g
         id="g32"
         transform="matrix(0.80500667,0,0,0.80500667,30.340402,40.470174)">
        <g
           id="g1">
          <path
             style="font-weight:bold;font-size:7.05556px;line-height:0.003932px;font-family:Sans;-inkscape-font-specification:'Sans Bold';letter-spacing:0.0396875px;opacity:0.98;fill:#0022ba;fill-rule:evenodd;stroke:#0927ab;stroke-width:0.1;stroke-linejoin:round;stroke-miterlimit:2.8;stroke-dasharray:none;paint-order:stroke fill markers"
             d="m 145.67933,203.79147 h -3.70004 v -5.12976 h 1.32292 v 4.13757 h 2.37712 z m 5.82401,-2.56316 c 0,0.81764 -0.23427,1.46762 -0.7028,1.94993 -0.46853,0.48001 -1.11621,0.72002 -1.94304,0.72002 -0.82453,0 -1.47106,-0.24001 -1.93959,-0.72002 -0.46853,-0.48231 -0.7028,-1.13229 -0.7028,-1.94993 0,-0.82453 0.23427,-1.47565 0.7028,-1.95337 0.46853,-0.48001 1.11506,-0.72002 1.93959,-0.72002 0.82223,0 1.46876,0.24001 1.93959,0.72002 0.47083,0.47772 0.70625,1.12884 0.70625,1.95337 z m -1.75356,1.2988 c 0.12862,-0.15617 0.22393,-0.33991 0.28594,-0.55121 0.062,-0.2136 0.093,-0.46394 0.093,-0.75103 0,-0.30777 -0.0356,-0.56959 -0.1068,-0.78548 -0.0712,-0.21589 -0.16421,-0.39045 -0.27905,-0.52366 -0.11713,-0.13781 -0.25264,-0.23771 -0.40652,-0.29972 -0.15159,-0.062 -0.31006,-0.093 -0.47542,-0.093 -0.16767,0 -0.32614,0.0299 -0.47543,0.0896 -0.14699,0.0597 -0.28249,0.15849 -0.40652,0.29628 -0.11483,0.12862 -0.209,0.30662 -0.2825,0.53399 -0.0712,0.22508 -0.1068,0.48691 -0.1068,0.78548 0,0.30547 0.0344,0.56615 0.10336,0.78204 0.0712,0.21359 0.16422,0.38814 0.27905,0.52365 0.11483,0.13551 0.24919,0.23542 0.40308,0.29973 0.15388,0.0643 0.3158,0.0965 0.48576,0.0965 0.16995,0 0.33187,-0.0322 0.48575,-0.0965 0.15389,-0.0666 0.28825,-0.16881 0.40308,-0.30662 z m 4.83902,-2.55281 c -0.42718,1.27516 -0.83456,2.54655 -1.275,3.81717 h -1.33325 l 1.8948,-5.12976 h 1.52274 l 1.8948,5.12976 h -1.3677 c -0.43233,-1.27338 -0.82999,-2.54658 -1.26623,-3.81863 z m 4.6937,0.35475 v 3.46242 h -1.21267 v -3.46935 z m -1.01423,-1.6498 1.38286,-0.0176 1.87069,2.93867 v -2.93867 h 1.21267 v 5.12976 h -1.27468 c -1.0169,-1.78785 -3.0064,-4.86922 -3.19154,-5.11216 z m 9.9216,3.49985 c 0,0.50528 -0.21474,0.91639 -0.64423,1.23334 -0.42719,0.31465 -1.00827,0.47198 -1.74322,0.47198 -0.42489,0 -0.79582,-0.0368 -1.11277,-0.11024 -0.31465,-0.0758 -0.60978,-0.17111 -0.88539,-0.28594 v -1.2299 h 0.1447 c 0.27331,0.21819 0.57877,0.38585 0.91639,0.50298 0.33992,0.11713 0.66606,0.1757 0.97841,0.1757 0.0804,0 0.18604,-0.007 0.31695,-0.0207 0.13091,-0.0138 0.23771,-0.0368 0.32039,-0.0689 0.10106,-0.0413 0.18374,-0.093 0.24805,-0.15503 0.0666,-0.062 0.0999,-0.15387 0.0999,-0.27561 0,-0.11254 -0.0482,-0.209 -0.1447,-0.28939 -0.0942,-0.0827 -0.23311,-0.14584 -0.41685,-0.18948 -0.19293,-0.0459 -0.39734,-0.0884 -0.61323,-0.12747 -0.21359,-0.0413 -0.41456,-0.093 -0.60289,-0.15503 -0.43179,-0.1401 -0.74299,-0.32958 -0.93362,-0.56844 -0.18833,-0.24115 -0.2825,-0.53973 -0.2825,-0.89572 0,-0.47772 0.2136,-0.86702 0.64079,-1.16789 0.42949,-0.30317 0.9807,-0.45475 1.65364,-0.45475 0.33762,0 0.67065,0.0333 0.99908,0.0999 0.33073,0.0643 0.61668,0.14587 0.85783,0.2446 v 1.18167 h -0.14125 c -0.20671,-0.16537 -0.46049,-0.30317 -0.76136,-0.41342 -0.29858,-0.11254 -0.60405,-0.16881 -0.9164,-0.16881 -0.11024,0 -0.22048,0.008 -0.33073,0.0241 -0.10795,0.0138 -0.21245,0.0414 -0.3135,0.0827 -0.0896,0.0345 -0.16651,0.0873 -0.23082,0.15848 -0.0643,0.0689 -0.0965,0.14814 -0.0965,0.23771 0,0.13551 0.0517,0.24001 0.15503,0.3135 0.10335,0.0712 0.29858,0.13666 0.58567,0.19637 0.18833,0.0391 0.36863,0.077 0.54088,0.11369 0.17455,0.0367 0.36174,0.0873 0.56155,0.15159 0.39274,0.12861 0.68213,0.30431 0.86816,0.5271 0.18833,0.22048 0.2825,0.50757 0.2825,0.86127 z"
             id="text22-8"
             inkscape:transform-center-x="-17.025069"
             inkscape:transform-center-y="1.122532"
             aria-label="LOANS"
             sodipodi:nodetypes="cccccccscscscscsscssccscccscssscssccccccccccccccccccccccscscccccssccscccccscscccccscccscccccss"
             transform="matrix(1.119491,0,0,1.119491,-19.251938,-24.66665)" />
          <path
             style="font-weight:bold;font-size:7.05556px;line-height:0.384851px;font-family:Sans;-inkscape-font-specification:'Sans Bold';opacity:0.98;fill:#0022ba;fill-rule:evenodd;stroke:#0927ab;stroke-width:0.237;stroke-linejoin:round;stroke-miterlimit:2.8;stroke-dasharray:none;paint-order:stroke fill markers"
             d="m 147.37912,211.16022 h -1.31603 v -3.43476 l -0.95084,2.22897 h -0.91295 l -0.95085,-2.22897 v 3.43476 h -1.24713 v -5.12975 h 1.53652 l 1.15411,2.57349 1.15066,-2.57349 h 1.53651 z m 3.38479,-3.65839 c -0.43583,1.27219 -0.84224,2.50163 -1.27708,3.77415 h -1.33325 l 1.89481,-5.12975 h 1.52273 l 1.8948,5.12975 h -1.3677 c -0.35319,-1.26475 -0.68435,-2.48392 -1.01847,-3.77829 z m 4.71782,1.7774 v 1.88102 h -1.31603 v -5.12975 h 2.21865 c 0.30317,0 0.56384,0.0172 0.78203,0.0517 0.21819,0.0345 0.4226,0.10911 0.61323,0.22394 0.19293,0.11483 0.34566,0.26412 0.4582,0.44786 0.11483,0.18144 0.17225,0.40996 0.17225,0.68557 0,0.37896 -0.0884,0.68787 -0.26527,0.92673 -0.17455,0.23886 -0.4249,0.43753 -0.75103,0.59601 l 1.71221,2.19794 h -1.61575 l -1.61368,-1.88102 0.012,-0.92325 c 0.2113,0 0.38815,-0.0103 0.53055,-0.031 0.14239,-0.0207 0.26182,-0.0677 0.35829,-0.14125 0.0919,-0.0712 0.15847,-0.14928 0.19981,-0.23426 0.0437,-0.0873 0.0655,-0.20327 0.0655,-0.34796 l -8e-5,-5e-5 c 0,-0.12861 -0.0264,-0.23886 -0.0792,-0.33073 -0.0528,-0.0919 -0.14352,-0.16421 -0.27216,-0.21704 -0.0896,-0.0367 -0.19407,-0.0585 -0.3135,-0.0654 -0.11943,-0.009 -0.25839,-0.0138 -0.41686,-0.0138 h -0.47887 c 7.8e-4,0.76825 0.001,1.53649 -2.9e-4,2.30474 z m 5.51424,0.40204 0.0117,1.47898 h -1.32292 v -5.12975 h 1.32292 v 2.32199 l 1.83279,-2.32199 h 1.53307 c -1.16287,1.22488 -2.28331,2.45562 -3.37755,3.65077 z m 2.12182,-0.41299 1.35563,1.89197 h -1.62264 l -1.19513,-1.87789 z m 5.54483,-1.3602 v 0.99218 h -2.22208 v 1.2678 h 2.39434 v 0.99219 h -3.71037 l 0.0296,-3.25714 z m -3.53811,-1.87758 h 3.71037 v 0.99219 l -3.71381,0.008 z m 4.30637,0.99219 v -0.99219 h 4.52686 v 0.99219 h -2.26343 z m 2.92489,0.23386 v 3.9037 h -1.32292 v -3.16704 z"
             id="text22-2-5"
             aria-label="MARKET"
             sodipodi:nodetypes="cccccccccccccccccccccccccccssccsccccccsccccsscscccccccccccccccccccccccccccccccccccccccccc"
             transform="matrix(1.119491,0,0,1.119491,-19.251938,-24.66665)" />
          <path
             id="path17-4"
             style="opacity:0.98;fill:#ec5f00;fill-opacity:1;stroke:#0927ab;stroke-width:0;stroke-linejoin:miter;stroke-miterlimit:2.8;stroke-dasharray:none;stroke-opacity:1;paint-order:stroke fill markers"
             d="m 131.43746,197.92435 c -1.353,-0.0188 -2.68253,0.35434 -3.82819,1.07436 v 1.44332 h 7.9375 c 0.078,0 0.14107,0.0625 0.14107,0.14056 v 8.12302 h 1.49035 c 0.70116,-1.0823 1.09025,-2.33702 1.12448,-3.62614 0.0799,-3.87145 -2.99376,-7.07465 -6.86521,-7.1546 z m -6.11126,3.35587 c -0.65245,1.05674 -1.01251,2.26781 -1.04335,3.50935 v 5.1e-4 c -0.0799,3.87146 2.99376,7.07467 6.86522,7.15461 1.35564,0.0271 2.69005,-0.33944 3.84162,-1.05524 v -1.49706 h -7.99899 c -0.0781,0 -0.14108,-0.063 -0.14108,-0.14108 v -7.97109 z"
             sodipodi:nodetypes="cccsscccccccccccsscc" />
          <rect
             style="opacity:0.98;fill:#0022ba;fill-opacity:1;fill-rule:evenodd;stroke:#0927ab;stroke-width:0;stroke-linejoin:miter;stroke-miterlimit:2.9;stroke-dasharray:none;stroke-opacity:1;paint-order:stroke fill markers"
             id="rect31"
             width="6.0890918"
             height="6.1971965"
             x="128.1938"
             y="201.83794"
             ry="0" />
        </g>
      </g>
    </g>
  </g>
  <metadata
     id="metadata1">
    <rdf:RDF>
      <cc:Work
         rdf:about="">
        <dc:title>LoansMarketRoundedLogo</dc:title>
      </cc:Work>
    </rdf:RDF>
  </metadata>
</svg>
